<?xml version="1.0" encoding="UTF-8" standalone="no"?>
<svg width="33px" height="20px" viewBox="0 0 33 20" version="1.1" xmlns="http://www.w3.org/2000/svg" xmlns:xlink="http://www.w3.org/1999/xlink" xmlns:sketch="http://www.bohemiancoding.com/sketch/ns">
    <!-- Generator: Sketch 3.4.1 (15681) - http://www.bohemiancoding.com/sketch -->
    <title>cloud</title>
    <desc>Created with Sketch.</desc>
    <defs></defs>
    <g id="Page-1" stroke="none" stroke-width="1" fill="none" fill-rule="evenodd" sketch:type="MSPage">
        <g id="Desktop-HD-Copy" sketch:type="MSArtboardGroup" transform="translate(-438.000000, -869.000000)" fill="#BDF93E">
            <g id="points" sketch:type="MSLayerGroup" transform="translate(438.000000, 709.000000)">
                <path d="M8,179.983598 C7.83473819,179.994475 7.66801428,180 7.5,180 C3.35786438,180 0,176.642136 0,172.5 C0,168.357864 3.35786438,165 7.5,165 C7.70803324,165 7.91408823,165.00847 8.11783892,165.025084 C9.71773001,162.034516 12.8712717,160 16.5,160 C20.8999477,160 24.6012604,162.991212 25.6813564,167.051055 C25.9494978,167.017362 26.2227214,167 26.5,167 C30.0898509,167 33,169.910149 33,173.5 C33,177.089851 30.0898509,180 26.5,180 C26.331764,180 26.1650208,179.993609 26,179.981055 L26,180 L8,180 L8,179.983598 Z" id="cloud" sketch:type="MSShapeGroup"></path>
            </g>
        </g>
    </g>
</svg>