<svg xmlns="http://www.w3.org/2000/svg" width="42" height="26" viewBox="0 0 42 26">
  <path fill="#BDF93E" fill-rule="evenodd" d="M129.181818,56.4336698 C128.971485,56.447514 128.759291,56.4545455 128.545455,56.4545455 C123.273646,56.4545455 119,52.1808999 119,46.9090909 C119,41.6372819 123.273646,37.3636364 128.545455,37.3636364 C128.810224,37.3636364 129.072476,37.3744163 129.331795,37.3955612 C131.36802,33.5893839 135.381619,31 140,31 C145.599933,31 150.310695,34.8069972 151.685363,39.9740695 C152.026634,39.9311878 152.374373,39.9090909 152.727273,39.9090909 C157.296174,39.9090909 161,43.6129171 161,48.1818182 C161,52.7507193 157.296174,56.4545455 152.727273,56.4545455 C152.513154,56.4545455 152.300936,56.4464109 152.090909,56.4304339 L152.090909,56.4545455 L129.181818,56.4545455 L129.181818,56.4336698 Z" transform="translate(-119 -31)"/>
</svg>
