<svg xmlns="http://www.w3.org/2000/svg" xmlns:xlink="http://www.w3.org/1999/xlink" width="50" height="34" viewBox="0 0 50 34">
  <defs>
    <linearGradient id="cloud-c" x1="41.992%" x2="57.925%" y1="0%" y2="100%">
      <stop offset="0%" stop-color="#FFF" stop-opacity=".501"/>
      <stop offset="100%"/>
    </linearGradient>
    <path id="cloud-b" d="M155.181818,162.43367 C154.971485,162.447514 154.759291,162.454545 154.545455,162.454545 C149.273646,162.454545 145,158.1809 145,152.909091 C145,147.637282 149.273646,143.363636 154.545455,143.363636 C154.810224,143.363636 155.072476,143.374416 155.331795,143.395561 C157.36802,139.589384 161.381619,137 166,137 C171.599933,137 176.310695,140.806997 177.685363,145.97407 C178.026634,145.931188 178.374373,145.909091 178.727273,145.909091 C183.296174,145.909091 187,149.612917 187,154.181818 C187,158.750719 183.296174,162.454545 178.727273,162.454545 C178.513154,162.454545 178.300936,162.446411 178.090909,162.430434 L178.090909,162.454545 L155.181818,162.454545 L155.181818,162.43367 Z"/>
    <filter id="cloud-a" width="133.3%" height="155%" x="-16.7%" y="-19.6%" filterUnits="objectBoundingBox">
      <feOffset dy="2" in="SourceAlpha" result="shadowOffsetOuter1"/>
      <feGaussianBlur in="shadowOffsetOuter1" result="shadowBlurOuter1" stdDeviation="2"/>
      <feColorMatrix in="shadowBlurOuter1" values="0 0 0 0 0   0 0 0 0 0   0 0 0 0 0  0 0 0 0.3 0"/>
    </filter>
    <filter id="cloud-d" width="128.6%" height="147.1%" x="-14.3%" y="-15.7%" filterUnits="objectBoundingBox">
      <feGaussianBlur in="SourceAlpha" result="shadowBlurInner1" stdDeviation="1.5"/>
      <feOffset dy="1" in="shadowBlurInner1" result="shadowOffsetInner1"/>
      <feComposite in="shadowOffsetInner1" in2="SourceAlpha" k2="-1" k3="1" operator="arithmetic" result="shadowInnerInner1"/>
      <feColorMatrix in="shadowInnerInner1" values="0 0 0 0 1   0 0 0 0 1   0 0 0 0 1  0 0 0 0.149428216 0"/>
    </filter>
  </defs>
  <g fill="none" fill-rule="evenodd" transform="translate(-141 -135)">
    <use fill="#000" filter="url(#cloud-a)" xlink:href="#cloud-b"/>
    <use fill="#BDF93E" xlink:href="#cloud-b"/>
    <use fill="url(#cloud-c)" style="mix-blend-mode:soft-light" xlink:href="#cloud-b"/>
    <use fill="#000" filter="url(#cloud-d)" xlink:href="#cloud-b"/>
  </g>
</svg>
