<?xml version="1.0" encoding="utf-8"?>
<!-- Generator: Adobe Illustrator 18.1.0, SVG Export Plug-In . SVG Version: 6.00 Build 0)  -->
<svg version="1.1" id="Layer_1" xmlns="http://www.w3.org/2000/svg" xmlns:xlink="http://www.w3.org/1999/xlink" x="0px" y="0px"
	 viewBox="0 0 25.7 32.7" enable-background="new 0 0 25.7 32.7" xml:space="preserve">
<g>
	<defs>
		<path id="SVGID_1_" d="M2,6.4c0-2.8,2.2-5,5-5h9c2.8,0,5,2.2,5,5v20c0,2.8-2.2,5-5,5H7c-2.8,0-5-2.2-5-5V6.4z M4,6.4L4,6.4v20
			c0,1.7,1.3,3,3,3h9c1.7,0,3-1.3,3-3v-20c0-1.7-1.3-3-3-3H7C5.3,3.4,4,4.7,4,6.4z"/>
	</defs>
	<clipPath id="SVGID_2_">
		<use xlink:href="#SVGID_1_"  overflow="visible"/>
	</clipPath>
	<g clip-path="url(#SVGID_2_)">
		<defs>
			<rect id="SVGID_3_" x="-731" y="-866.6" width="1440" height="1153"/>
		</defs>
		<clipPath id="SVGID_4_">
			<use xlink:href="#SVGID_3_"  overflow="visible"/>
		</clipPath>
		<rect x="-3" y="-3.6" clip-path="url(#SVGID_4_)" fill="#DA543C" width="29" height="40"/>
	</g>
</g>
<g>
	<defs>
		<path id="SVGID_5_" d="M13,21.4c0-1.7,1.3-3,3-3h5c1.7,0,3,1.3,3,3v7c0,1.7-1.3,3-3,3h-5c-1.7,0-3-1.3-3-3V21.4z M15,21.4L15,21.4
			v7c0,0.6,0.4,1,1,1h5c0.6,0,1-0.4,1-1v-7c0-0.6-0.4-1-1-1h-5C15.4,20.4,15,20.8,15,21.4z"/>
	</defs>
	<clipPath id="SVGID_6_">
		<use xlink:href="#SVGID_5_"  overflow="visible"/>
	</clipPath>
	<g clip-path="url(#SVGID_6_)">
		<defs>
			<rect id="SVGID_7_" x="-731" y="-866.6" width="1440" height="1153"/>
		</defs>
		<clipPath id="SVGID_8_">
			<use xlink:href="#SVGID_7_"  overflow="visible"/>
		</clipPath>
		<rect x="8" y="13.4" clip-path="url(#SVGID_8_)" fill="#DA543C" width="21" height="23"/>
	</g>
</g>
<g>
	<defs>
		<path id="SVGID_9_" d="M1,6.4v20c0,3.3,2.7,6,6,6h9c3.3,0,6-2.7,6-6v-20c0-3.3-2.7-6-6-6H7C3.7,0.4,1,3,1,6.4z M3,6.4
			c0-2.2,1.8-4,4-4h9c2.2,0,4,1.8,4,4v20c0,2.2-1.8,4-4,4H7c-2.2,0-4-1.8-4-4V6.4z M-19-19.6h61v72h-61V-19.6z"/>
	</defs>
	<clipPath id="SVGID_10_">
		<use xlink:href="#SVGID_9_"  overflow="visible"/>
	</clipPath>
	<g clip-path="url(#SVGID_10_)">
		<defs>
			<path id="SVGID_11_" d="M2,6.4c0-2.8,2.2-5,5-5h9c2.8,0,5,2.2,5,5v20c0,2.8-2.2,5-5,5H7c-2.8,0-5-2.2-5-5V6.4z"/>
		</defs>
		<clipPath id="SVGID_12_">
			<use xlink:href="#SVGID_11_"  overflow="visible"/>
		</clipPath>
		<g clip-path="url(#SVGID_12_)">
			<defs>
				<rect id="SVGID_13_" x="-731" y="-866.6" width="1440" height="1153"/>
			</defs>
			<clipPath id="SVGID_14_">
				<use xlink:href="#SVGID_13_"  overflow="visible"/>
			</clipPath>
			<path clip-path="url(#SVGID_14_)" fill-rule="evenodd" clip-rule="evenodd" fill="#F9684E" d="M2,6.4c0-2.8,2.2-5,5-5h9
				c2.8,0,5,2.2,5,5v20c0,2.8-2.2,5-5,5H7c-2.8,0-5-2.2-5-5V6.4z"/>
		</g>
	</g>
</g>
<g>
	<defs>
		<path id="SVGID_15_" d="M2,6.4c0-2.8,2.2-5,5-5h9c2.8,0,5,2.2,5,5v20c0,2.8-2.2,5-5,5H7c-2.8,0-5-2.2-5-5V6.4z"/>
	</defs>
	<clipPath id="SVGID_16_">
		<use xlink:href="#SVGID_15_"  overflow="visible"/>
	</clipPath>
	<g clip-path="url(#SVGID_16_)">
		<defs>
			<rect id="SVGID_17_" x="-731" y="-866.6" width="1440" height="1153"/>
		</defs>
		<clipPath id="SVGID_18_">
			<use xlink:href="#SVGID_17_"  overflow="visible"/>
		</clipPath>
		<path clip-path="url(#SVGID_18_)" fill="none" stroke="#DA543C" stroke-width="4" stroke-miterlimit="10" d="M2,6.4
			c0-2.8,2.2-5,5-5h9c2.8,0,5,2.2,5,5v20c0,2.8-2.2,5-5,5H7c-2.8,0-5-2.2-5-5V6.4z"/>
	</g>
</g>
<g>
	<defs>
		<path id="SVGID_19_" d="M12,21.4v7c0,2.2,1.8,4,4,4h5c2.2,0,4-1.8,4-4v-7c0-2.2-1.8-4-4-4h-5C13.8,17.4,12,19.1,12,21.4z M14,21.4
			c0-1.1,0.9-2,2-2h5c1.1,0,2,0.9,2,2v7c0,1.1-0.9,2-2,2h-5c-1.1,0-2-0.9-2-2V21.4z M-8-2.6h53v55H-8V-2.6z"/>
	</defs>
	<clipPath id="SVGID_20_">
		<use xlink:href="#SVGID_19_"  overflow="visible"/>
	</clipPath>
	<g clip-path="url(#SVGID_20_)">
		<defs>
			<path id="SVGID_21_" d="M13,21.4c0-1.7,1.3-3,3-3h5c1.7,0,3,1.3,3,3v7c0,1.7-1.3,3-3,3h-5c-1.7,0-3-1.3-3-3V21.4z"/>
		</defs>
		<clipPath id="SVGID_22_">
			<use xlink:href="#SVGID_21_"  overflow="visible"/>
		</clipPath>
		<g clip-path="url(#SVGID_22_)">
			<defs>
				<rect id="SVGID_23_" x="-731" y="-866.6" width="1440" height="1153"/>
			</defs>
			<clipPath id="SVGID_24_">
				<use xlink:href="#SVGID_23_"  overflow="visible"/>
			</clipPath>
			<path clip-path="url(#SVGID_24_)" fill-rule="evenodd" clip-rule="evenodd" fill="#F9684E" d="M13,21.4c0-1.7,1.3-3,3-3h5
				c1.7,0,3,1.3,3,3v7c0,1.7-1.3,3-3,3h-5c-1.7,0-3-1.3-3-3V21.4z"/>
		</g>
	</g>
</g>
<g>
	<defs>
		<path id="SVGID_25_" d="M13,21.4c0-1.7,1.3-3,3-3h5c1.7,0,3,1.3,3,3v7c0,1.7-1.3,3-3,3h-5c-1.7,0-3-1.3-3-3V21.4z"/>
	</defs>
	<clipPath id="SVGID_26_">
		<use xlink:href="#SVGID_25_"  overflow="visible"/>
	</clipPath>
	<g clip-path="url(#SVGID_26_)">
		<defs>
			<rect id="SVGID_27_" x="-731" y="-866.6" width="1440" height="1153"/>
		</defs>
		<clipPath id="SVGID_28_">
			<use xlink:href="#SVGID_27_"  overflow="visible"/>
		</clipPath>
		<path clip-path="url(#SVGID_28_)" fill="none" stroke="#DA543C" stroke-width="4" stroke-miterlimit="10" d="M13,21.4
			c0-1.7,1.3-3,3-3h5c1.7,0,3,1.3,3,3v7c0,1.7-1.3,3-3,3h-5c-1.7,0-3-1.3-3-3V21.4z"/>
	</g>
</g>
</svg>
