<svg xmlns="http://www.w3.org/2000/svg" width="45" height="24" viewBox="0 0 45 24">
  <g fill="none" fill-rule="evenodd">
    <ellipse cx="11.571" cy="11.786" fill="#4EBEF9" rx="11.571" ry="11.786"/>
    <ellipse cx="33.429" cy="11.786" fill="#4EBEF9" rx="11.571" ry="11.786"/>
    <path fill="#FFF" d="M39 10.9126984L34.2857143 10.9126984 34.2857143 6.11111111C34.2857143 5.63095238 33.9 5.23809524 33.4285714 5.23809524 32.9571429 5.23809524 32.5714286 5.63095238 32.5714286 6.11111111L32.5714286 10.9126984 27.8571429 10.9126984C27.3857143 10.9126984 27 11.3055556 27 11.7857143 27 12.265873 27.3857143 12.6587302 27.8571429 12.6587302L32.5714286 12.6587302 32.5714286 17.4603175C32.5714286 17.9404762 32.9571429 18.3333333 33.4285714 18.3333333 33.9 18.3333333 34.2857143 17.9404762 34.2857143 17.4603175L34.2857143 12.6587302 39 12.6587302C39.4714286 12.6587302 39.8571429 12.265873 39.8571429 11.7857143 39.8571429 11.3055556 39.4714286 10.9126984 39 10.9126984L39 10.9126984zM6.83766234 10.8690316L16.3051948 10.8690316C16.8837662 10.8690316 17.3571429 11.2667995 17.3571429 11.7529602 17.3571429 12.239121 16.8837662 12.6368888 16.3051948 12.6368888L6.83766234 12.6368888C6.25909091 12.6368888 5.78571429 12.239121 5.78571429 11.7529602 5.78571429 11.2667995 6.25909091 10.8690316 6.83766234 10.8690316L6.83766234 10.8690316z"/>
  </g>
</svg>
