<svg xmlns="http://www.w3.org/2000/svg" xmlns:xlink="http://www.w3.org/1999/xlink" width="53" height="31" viewBox="0 0 53 31">
  <defs>
    <linearGradient id="interface-c" x1="19.386%" y1="-32.031%" y2="131.076%">
      <stop offset="0%" stop-color="#FFF"/>
      <stop offset="100%" stop-opacity=".5"/>
    </linearGradient>
    <path id="interface-b" d="M22.5,7.75865212 C20.9240827,3.24117839 16.6262645,0 11.5714286,0 C5.18070504,0 0,5.18070504 0,11.5714286 C0,17.9621521 5.18070504,23.1428571 11.5714286,23.1428571 C16.6262645,23.1428571 20.9240827,19.9016788 22.5,15.384205 C24.0759173,19.9016788 28.3737355,23.1428571 33.4285714,23.1428571 C39.819295,23.1428571 45,17.9621521 45,11.5714286 C45,5.18070504 39.819295,0 33.4285714,0 C28.3737355,0 24.0759173,3.24117839 22.5,7.75865212 Z"/>
    <filter id="interface-a" width="131.1%" height="160.5%" x="-15.6%" y="-21.6%" filterUnits="objectBoundingBox">
      <feOffset dy="2" in="SourceAlpha" result="shadowOffsetOuter1"/>
      <feGaussianBlur in="shadowOffsetOuter1" result="shadowBlurOuter1" stdDeviation="2"/>
      <feColorMatrix in="shadowBlurOuter1" values="0 0 0 0 0   0 0 0 0 0   0 0 0 0 0  0 0 0 0.3 0"/>
    </filter>
  </defs>
  <g fill="none" fill-rule="evenodd" transform="translate(4 2)">
    <use fill="#000" filter="url(#interface-a)" xlink:href="#interface-b"/>
    <use fill="#4EBEF9" xlink:href="#interface-b"/>
    <use fill="url(#interface-c)" fill-opacity=".75" style="mix-blend-mode:soft-light" xlink:href="#interface-b"/>
    <path fill="#FFF" d="M39 10.7142857L34.2857143 10.7142857 34.2857143 6C34.2857143 5.52857143 33.9 5.14285714 33.4285714 5.14285714 32.9571429 5.14285714 32.5714286 5.52857143 32.5714286 6L32.5714286 10.7142857 27.8571429 10.7142857C27.3857143 10.7142857 27 11.1 27 11.5714286 27 12.0428571 27.3857143 12.4285714 27.8571429 12.4285714L32.5714286 12.4285714 32.5714286 17.1428571C32.5714286 17.6142857 32.9571429 18 33.4285714 18 33.9 18 34.2857143 17.6142857 34.2857143 17.1428571L34.2857143 12.4285714 39 12.4285714C39.4714286 12.4285714 39.8571429 12.0428571 39.8571429 11.5714286 39.8571429 11.1 39.4714286 10.7142857 39 10.7142857L39 10.7142857zM6.83766234 10.6714129L16.3051948 10.6714129C16.8837662 10.6714129 17.3571429 11.0619486 17.3571429 11.5392701 17.3571429 12.0165915 16.8837662 12.4071272 16.3051948 12.4071272L6.83766234 12.4071272C6.25909091 12.4071272 5.78571429 12.0165915 5.78571429 11.5392701 5.78571429 11.0619486 6.25909091 10.6714129 6.83766234 10.6714129L6.83766234 10.6714129z"/>
  </g>
</svg>
