<?xml version="1.0" encoding="UTF-8" standalone="no"?>
<svg width="35px" height="18px" viewBox="0 0 35 18" version="1.1" xmlns="http://www.w3.org/2000/svg" xmlns:xlink="http://www.w3.org/1999/xlink" xmlns:sketch="http://www.bohemiancoding.com/sketch/ns">
    <!-- Generator: Sketch 3.4.1 (15681) - http://www.bohemiancoding.com/sketch -->
    <title>easy interface</title>
    <desc>Created with Sketch.</desc>
    <defs></defs>
    <g id="Page-1" stroke="none" stroke-width="1" fill="none" fill-rule="evenodd" sketch:type="MSPage">
        <g id="Desktop-HD-Copy" sketch:type="MSArtboardGroup" transform="translate(-438.000000, -714.000000)">
            <g id="points" sketch:type="MSLayerGroup" transform="translate(438.000000, 709.000000)">
                <g id="easy-interface" transform="translate(0.000000, 5.000000)" sketch:type="MSShapeGroup">
                    <circle id="Oval-1" fill="#4EBEF9" cx="9" cy="9" r="9"></circle>
                    <circle id="Oval-1-Copy-2" fill="#4EBEF9" cx="26" cy="9" r="9"></circle>
                    <path d="M30.3333333,8.33333333 L26.6666667,8.33333333 L26.6666667,4.66666667 C26.6666667,4.3 26.3666667,4 26,4 C25.6333333,4 25.3333333,4.3 25.3333333,4.66666667 L25.3333333,8.33333333 L21.6666667,8.33333333 C21.3,8.33333333 21,8.63333333 21,9 C21,9.36666667 21.3,9.66666667 21.6666667,9.66666667 L25.3333333,9.66666667 L25.3333333,13.3333333 C25.3333333,13.7 25.6333333,14 26,14 C26.3666667,14 26.6666667,13.7 26.6666667,13.3333333 L26.6666667,9.66666667 L30.3333333,9.66666667 C30.7,9.66666667 31,9.36666667 31,9 C31,8.63333333 30.7,8.33333333 30.3333333,8.33333333 L30.3333333,8.33333333 Z" id="Shape-2" fill="#FFFFFF"></path>
                    <path d="M5.31818182,8.29998779 L12.6818182,8.29998779 C13.1318182,8.29998779 13.5,8.60373781 13.5,8.97498782 C13.5,9.34623783 13.1318182,9.64998785 12.6818182,9.64998785 L5.31818182,9.64998785 C4.86818182,9.64998785 4.5,9.34623783 4.5,8.97498782 C4.5,8.60373781 4.86818182,8.29998779 5.31818182,8.29998779 L5.31818182,8.29998779 Z" id="Shape-2" fill="#FFFFFF"></path>
                </g>
            </g>
        </g>
    </g>
</svg>